<svg xmlns="http://www.w3.org/2000/svg" viewBox="0 0 1024 1024"><defs><style>.cls-1{fill:#fff;}.cls-2{fill:#ff73b0;}.cls-3{fill:#fd0f81;}.cls-4{fill:#91dc5a;}.cls-5{fill:#4cba68;}.cls-6{fill:#007175;}.cls-7{fill:#005457;}.cls-8{fill:#ffcd00;}.cls-9{fill:#ff9811;}.cls-10{fill:#00dbcd;}.cls-11{fill:#00b6bd;}.cls-12{fill:#fea921;}.cls-13{fill:#e58200;}.cls-14{fill:#c7c5cb;}.cls-15{fill:#d8d8da;}.cls-16{fill:#aeadb3;}</style></defs><g id="레이어_2" data-name="레이어 2"><g id="레이어_1-2" data-name="레이어 1"><rect class="cls-1" width="1024" height="1024"/><path class="cls-2" d="M705.14,790.72A119.36,119.36,0,1,1,824.5,671.37,119.48,119.48,0,0,1,705.14,790.72Zm0-197.69a78.34,78.34,0,1,0,78.34,78.34A78.43,78.43,0,0,0,705.14,593Z"/><path class="cls-3" d="M705.15,552h0v41h0a78.34,78.34,0,0,1,0,156.68h0v41h0a119.36,119.36,0,0,0,0-238.71Z"/><path class="cls-4" d="M589.82,911.54A119.36,119.36,0,1,1,709.18,792.18,119.49,119.49,0,0,1,589.82,911.54Zm0-197.7a78.34,78.34,0,1,0,78.34,78.34A78.43,78.43,0,0,0,589.82,713.84Z"/><path class="cls-5" d="M589.82,672.83h0v41h0a78.34,78.34,0,0,1,0,156.68h0v41h0a119.36,119.36,0,1,0,0-238.71Z"/><path class="cls-6" d="M474.5,790.72A119.36,119.36,0,1,1,593.86,671.37,119.49,119.49,0,0,1,474.5,790.72Zm0-197.69a78.34,78.34,0,1,0,78.34,78.34A78.42,78.42,0,0,0,474.5,593Z"/><path class="cls-7" d="M474.5,552h0v41h0a78.34,78.34,0,1,1,0,156.68h0v41h0a119.36,119.36,0,1,0,0-238.71Z"/><path class="cls-8" d="M359.18,911.54A119.36,119.36,0,1,1,478.53,792.18,119.5,119.5,0,0,1,359.18,911.54Zm0-197.7a78.34,78.34,0,1,0,78.34,78.34A78.42,78.42,0,0,0,359.18,713.84Z"/><path class="cls-9" d="M359.18,672.83h0v41h0a78.34,78.34,0,1,1,0,156.68h0v41h0a119.36,119.36,0,0,0,0-238.71Z"/><path class="cls-10" d="M243.86,790.72A119.36,119.36,0,1,1,363.21,671.37,119.49,119.49,0,0,1,243.86,790.72Zm0-197.69a78.34,78.34,0,1,0,78.33,78.34A78.43,78.43,0,0,0,243.86,593Z"/><path class="cls-11" d="M243.86,552h0v41h0a78.34,78.34,0,0,1,0,156.68h0v41h0a119.36,119.36,0,0,0,0-238.71Z"/><path class="cls-12" d="M891.29,213.16l7.61,28.39a17.48,17.48,0,0,1-12.73,21.5L414.82,378.44a5.73,5.73,0,0,1-6.89-4.08l-8.23-30.73a5.73,5.73,0,0,1,3.93-7L869.52,200.9A17.47,17.47,0,0,1,891.29,213.16Z"/><path class="cls-13" d="M399.7,343.63l6.23,23.25a5.72,5.72,0,0,1,3.93-7L875.75,224.15a17.47,17.47,0,0,1,21.77,12.26l1.38,5.14h0l-7.61-28.39a17.47,17.47,0,0,0-21.77-12.26L403.63,336.65A5.72,5.72,0,0,0,399.7,343.63Z"/><path class="cls-14" d="M457.86,120.35a5.88,5.88,0,0,0-9.12-6.64C403,149,402.33,236.54,430.49,351.5h0c0,.11.07.22.1.33s.05.22.08.33h0C463.76,465.8,508.12,541.24,565.39,549A5.89,5.89,0,0,0,570,538.65c-51.9-44-77-163.95-86.88-200.9C472.92,299.81,434.93,184.3,457.86,120.35Z"/><path class="cls-15" d="M436.22,155.81c-3.57,59,17.16,131.77,28.26,170.78,1.67,5.87,3.12,10.94,4.21,15s2.31,8.94,3.77,14.72c9.9,39.43,28.39,113.05,61.07,162.46C500.46,492.58,470,434,445,348v0C423.48,260.21,420.63,195,436.22,155.81Z"/><path class="cls-14" d="M506.16,362.47l-15.25-56.92a9.88,9.88,0,0,0-12.35-6.92l-55.65,16.48a9.87,9.87,0,0,0-6.74,12l14.47,54a9.88,9.88,0,0,0,11.85,7.05l56.44-13.56A9.88,9.88,0,0,0,506.16,362.47Z"/><path class="cls-16" d="M416.17,327.14l6.27,23.42a9.9,9.9,0,0,1,6.74-12l55.66-16.47A9.88,9.88,0,0,1,497.19,329l-6.28-23.42a9.88,9.88,0,0,0-12.35-6.92L422.91,315.1A9.89,9.89,0,0,0,416.17,327.14Z"/></g></g></svg>